<svg width="24" height="6" viewBox="0 0 24 6" fill="none" xmlns="http://www.w3.org/2000/svg">
<path opacity="0.4" fill-rule="evenodd" clip-rule="evenodd" d="M20.2344 1.32356C21.0333 0.836342 21.4754 0.462324 21.4754 0.462324L20.8815 1.22574C22.7348 1.00247 24.0818 1.34445 22.4325 2.30822C22.1137 2.49454 21.8051 2.67769 21.5035 2.8567C18.5116 4.63238 16.2073 6 11.4249 6C9.55652 6 7.8087 5.4575 6.3312 4.75758C4.97143 4.3491 3.96455 3.74346 2.64135 2.94756C2.30716 2.74655 1.95279 2.53339 1.56746 2.30822C0.334097 1.58746 0.776414 1.21446 1.85304 1.16557V0.462324C1.85304 0.462324 2.30617 0.785967 3.09811 1.22331C4.01278 1.33168 5.05351 1.57833 5.91918 1.95643C7.66058 2.71703 9.81371 3.41669 12 3.52447C14.1863 3.41669 16.3394 2.71703 18.0808 1.95643C18.7414 1.66793 19.5038 1.45596 20.2344 1.32356Z" fill="#F15223"/>
</svg>
