<svg width="24" height="18" viewBox="0 0 24 18" fill="none" xmlns="http://www.w3.org/2000/svg">
<path fill-rule="evenodd" clip-rule="evenodd" d="M4.48734 13.483L4.65226 13.6461L4.72892 13.7186L6.96703 15.9558C7.06428 16.0555 7.16601 16.1564 7.31178 16.2986C7.38866 16.3777 7.47447 16.4616 7.60321 16.5848L7.64439 16.6281C7.69787 16.6847 7.71139 16.6988 7.73601 16.722C8.0322 17.018 8.38883 17.2771 8.77903 17.4765C9.16999 17.6751 9.58748 17.8124 10.0185 17.8844C10.4141 17.9502 10.8138 17.9857 11.2145 17.9907C11.3046 17.9933 11.3505 17.9945 11.4072 17.9958C11.5259 17.9986 11.6262 18 11.7239 18H17.6135H17.6154H18.2085C18.3563 18 18.4726 17.9976 18.7275 17.9905C19.1182 17.9858 19.5187 17.9503 19.9146 17.8845C20.3458 17.8125 20.7627 17.675 21.1515 17.4767C21.5422 17.2784 21.9 17.0186 22.2106 16.7077C22.5193 16.3966 22.7774 16.0422 22.9777 15.655C23.1762 15.2588 23.3125 14.8442 23.3865 14.4164C23.4518 14.0156 23.4866 13.6173 23.4916 13.218C23.4971 13.038 23.5 12.8692 23.5 12.7062V5.29385L23.4984 5.161C23.4961 4.96847 23.4947 4.8823 23.4914 4.7702C23.4866 4.38272 23.4518 3.98436 23.3876 3.59024C23.3125 3.15582 23.1762 2.74123 22.9818 2.35308C22.7792 1.9577 22.5199 1.60167 22.2104 1.29207C21.9 0.981363 21.5422 0.721607 21.1503 0.522681C20.7627 0.324979 20.3457 0.187494 19.9153 0.115609C19.5204 0.047482 19.1169 0.0116983 18.7125 0.00924352C18.4726 0.0024164 18.3563 0 18.2085 0H11.722C11.6243 0 11.524 0.00141478 11.4053 0.00417483C11.3486 0.00549403 11.3028 0.00671184 11.2021 0.00949477C10.8133 0.0117214 10.4105 0.0475174 10.0127 0.116267C9.58563 0.187558 9.16815 0.324864 8.77858 0.522782C8.38698 0.722854 8.03035 0.981985 7.7202 1.2915C7.70927 1.30145 7.69066 1.32086 7.60348 1.41406C7.49276 1.5185 7.39357 1.61542 7.29799 1.71332C7.15055 1.85688 7.05908 1.94751 6.95819 2.05131L4.65872 4.34673C4.62977 4.37452 4.60054 4.40307 4.56652 4.43666L4.48174 4.52075C4.39128 4.60864 4.33369 4.66594 4.26969 4.73307L2.21694 6.78415L2.19462 6.80615L2.16637 6.83435L2.11428 6.88695C2.06508 6.93689 2.04446 6.95772 2.02099 6.98103C1.93677 7.06525 1.89359 7.10944 1.84511 7.16301C1.67404 7.33007 1.51334 7.50742 1.3639 7.69408C1.21961 7.84697 1.10296 8.02389 1.01927 8.21697L0.995575 8.27983C0.844574 8.74807 0.844574 9.25193 0.995575 9.72017L1.02115 9.78732C1.106 9.97949 1.222 10.1563 1.36442 10.3105C1.5202 10.4995 1.68537 10.6807 1.85931 10.8531L1.93408 10.9294C1.97666 10.9726 1.99442 10.9906 2.02109 11.0172C2.04764 11.0436 2.06756 11.0637 2.11624 11.113C2.16656 11.1641 2.19049 11.1882 2.21991 11.2174L4.28276 13.2831L4.48734 13.483ZM17.6154 17.3077V18L17.6135 17.3077V16.6154H11.7239C11.6383 16.6154 11.5482 16.6141 11.4394 16.6116C11.3854 16.6103 11.3419 16.6092 11.2422 16.6064C10.9014 16.6021 10.5719 16.5728 10.2461 16.5186C9.95444 16.4699 9.67155 16.3769 9.40759 16.2428C9.1473 16.1098 8.90812 15.936 8.70012 15.7284C8.69101 15.7195 8.67354 15.7012 8.6507 15.6771C8.58284 15.6053 8.57667 15.5988 8.54755 15.5723C8.4422 15.4712 8.36603 15.3967 8.29064 15.3195C8.14033 15.1725 8.04566 15.0787 7.95191 14.9826L5.66106 12.6926C5.6395 12.6699 5.6166 12.6485 5.59248 12.6286L5.45791 12.4955L5.25637 12.2986L3.19756 10.2369C3.17068 10.2102 3.15077 10.1902 3.10208 10.1408C3.05177 10.0898 3.02783 10.0656 2.99841 10.0364C2.97665 10.0147 2.96122 9.99906 2.92138 9.95859L2.88171 9.9182L2.84041 9.87613C2.68871 9.72563 2.55076 9.57388 2.38694 9.37679C2.35324 9.34135 2.32473 9.30138 2.30221 9.25809C2.25504 9.08876 2.25518 8.9097 2.30263 8.74043C2.32232 8.70256 2.34761 8.66781 2.3777 8.63737L2.42824 8.58023C2.551 8.42501 2.68391 8.27809 2.86103 8.10401C2.89406 8.06699 2.92442 8.03573 2.99831 7.96184C3.02512 7.93523 3.05043 7.90965 3.10012 7.8592L3.14715 7.81171L3.1699 7.78899L3.19063 7.76854L5.26015 5.70047C5.32069 5.63726 5.36818 5.59002 5.48497 5.47584L5.53949 5.4218C5.55609 5.4054 5.57114 5.39062 5.60898 5.3595L7.94426 3.02328C8.0411 2.92375 8.12571 2.83991 8.27685 2.69246C8.36998 2.59736 8.45589 2.51342 8.55601 2.41896C8.5813 2.39489 8.6106 2.36401 8.68431 2.28512C8.90628 2.06399 9.14546 1.8902 9.40714 1.7565C9.6697 1.62311 9.95259 1.53007 10.2446 1.48132C10.5712 1.42488 10.898 1.39584 11.2255 1.39383L11.2509 1.39316C11.3469 1.39065 11.3877 1.38957 11.4375 1.38842C11.5463 1.38589 11.6364 1.38462 11.722 1.38462H18.2085C18.3393 1.38462 18.4469 1.38685 18.6891 1.39358C19.0324 1.39583 19.36 1.42488 19.6835 1.48069C19.9781 1.52988 20.2597 1.62277 20.5224 1.75673C20.785 1.89004 21.0238 2.06334 21.231 2.27079C21.4388 2.47869 21.6127 2.71752 21.7467 2.97886C21.8775 3.24007 21.9713 3.52525 22.0221 3.81949C22.0742 4.13915 22.103 4.46896 22.1071 4.79954C22.1104 4.91244 22.1117 4.99302 22.1139 5.17732L22.1155 5.30346L22.1154 5.59038V12.7062C22.1154 12.8542 22.1127 13.0096 22.1074 13.1887C22.103 13.531 22.0742 13.8609 22.021 14.1872C21.9713 14.4747 21.8775 14.7599 21.7438 15.0269C21.6122 15.2811 21.4373 15.5212 21.2293 15.7308C21.0238 15.9367 20.785 16.11 20.5236 16.2427C20.2597 16.3772 19.9781 16.4701 19.6872 16.5187C19.3612 16.5728 19.0309 16.6021 18.6998 16.6062C18.4469 16.6131 18.3393 16.6154 18.2085 16.6154H17.6154V17.3077Z" fill="white"/>
</svg>
