<svg width="104" height="108" viewBox="0 0 104 108" fill="none" xmlns="http://www.w3.org/2000/svg">
<g filter="url(#filter0_d_0_1096)">
<path d="M29.4845 5.88565C21.8916 9.75445 15.3221 15.3653 10.3131 22.2596C5.30412 29.1538 1.99793 37.1357 0.664836 45.5525C-0.668261 53.9694 0.00958562 62.5822 2.64296 70.6869C5.27632 78.7916 9.79045 86.158 15.8162 92.1838C21.842 98.2096 29.2084 102.724 37.3131 105.357C45.4178 107.99 54.0306 108.668 62.4475 107.335C68.2213 106.421 73.7904 104.578 78.9442 101.894C82.8628 99.8526 83.6351 94.7892 81.0381 91.2148L67.8299 73.0352C65.8821 70.3544 62.1246 69.8818 58.9456 70.8167C58.2245 71.0287 57.4886 71.1948 56.7421 71.313C54.0099 71.7457 51.2141 71.5257 48.5833 70.6709C45.9525 69.8161 43.5613 68.3508 41.6053 66.3947C39.6492 64.4387 38.1839 62.0475 37.3291 59.4167C36.4743 56.7859 36.2543 53.9901 36.687 51.2579C37.1197 48.5257 38.193 45.9347 39.8189 43.6968C41.4448 41.4589 43.5774 39.6376 46.0421 38.3817C46.7155 38.0386 47.4085 37.7404 48.1164 37.4881C51.2379 36.3759 54 33.7849 54 30.4712V8C54 3.58172 50.399 -0.06067 46.0292 0.591513C40.2819 1.44926 34.6932 3.23171 29.4845 5.88565Z" fill="#FFD035"/>
</g>
<defs>
<filter id="filter0_d_0_1096" x="-40" y="-19.4844" width="162.552" height="187.484" filterUnits="userSpaceOnUse" color-interpolation-filters="sRGB">
<feFlood flood-opacity="0" result="BackgroundImageFix"/>
<feColorMatrix in="SourceAlpha" type="matrix" values="0 0 0 0 0 0 0 0 0 0 0 0 0 0 0 0 0 0 127 0" result="hardAlpha"/>
<feOffset dy="20"/>
<feGaussianBlur stdDeviation="20"/>
<feColorMatrix type="matrix" values="0 0 0 0 1 0 0 0 0 0.815686 0 0 0 0 0.207843 0 0 0 0.32 0"/>
<feBlend mode="normal" in2="BackgroundImageFix" result="effect1_dropShadow_0_1096"/>
<feBlend mode="normal" in="SourceGraphic" in2="effect1_dropShadow_0_1096" result="shape"/>
</filter>
</defs>
</svg>
