<svg width="251" height="139" viewBox="0 0 251 139" fill="none" xmlns="http://www.w3.org/2000/svg">
<g style="mix-blend-mode:soft-light" opacity="0.594703">
<path fill-rule="evenodd" clip-rule="evenodd" d="M0.73938 1.5127V137.967H248.739V81.4862L243.157 93.0379L235.981 86.8177L231.196 97.4809L227.209 86.8177L225.614 91.2607L216.842 86.8177L208.071 91.2607L203.286 81.4862L195.312 97.4809L192.919 91.2607L185.743 97.4809L175.376 53.9398L167.636 85.9998L159.427 63.7143L158.723 72.9998L153.845 61.0485L149.858 67.2687L144.276 30.8363L134.707 40.6108L126.733 9.51004L117.961 30.8363L115.569 21.9504L103.608 45.9424L95.6333 6.84426L92.4436 13.953L84.4693 4.17848L68.5207 12.1758L64.5336 6.84426L55.7619 19.2846L39.0159 12.1758L35.7304 21.9998L30.3829 2.99976C30.3829 2.99976 27.5866 6.53326 26.8179 7.99976C25.829 9.88663 26.1501 11.8979 25.0354 11.9998C22.064 12.2713 19.6879 3.99976 19.6879 3.99976C19.6879 3.99976 16.1229 9.99976 10.7754 10.9998C8.65912 11.3955 7.3894 9.30269 5.42791 6.99976C4.08518 5.4233 0.73938 1.5127 0.73938 1.5127Z" fill="url(#paint0_linear_0_228)"/>
</g>
<path d="M1.73938 1.5127L11.2957 12.198L19.2637 4.18403L24.8412 12.198L31.2155 1.5127L35.9963 21.9929L40.777 12.198L57.5096 19.3216L65.4775 6.85537L69.4615 12.198L85.3973 4.18403L93.3652 13.9789L96.5524 6.85537L104.52 46.035L116.472 21.9929L118.862 30.8974L127.627 9.5267L135.595 40.6923L145.157 30.8974L150.734 67.4057L154.718 61.1725L158.702 72.7483L160.296 63.8439L167.467 85.2146L176.231 54.049L186.59 97.6808L192.964 91.4477L195.354 97.6808L203.322 81.6528L208.103 91.4477L216.868 86.9955L225.632 91.4477L227.226 86.9955L231.21 97.6808L235.991 86.9955L243.162 93.2286L248.739 81.6528" stroke="#FF7262" stroke-width="2" stroke-linecap="square" stroke-linejoin="round"/>
<defs>
<linearGradient id="paint0_linear_0_228" x1="0.73938" y1="1.5127" x2="0.73938" y2="137.967" gradientUnits="userSpaceOnUse">
<stop stop-color="#FF7262"/>
<stop offset="1" stop-color="#FFD6AF" stop-opacity="0.01"/>
</linearGradient>
</defs>
</svg>
