<svg width="18" height="18" viewBox="0 0 18 18" fill="none" xmlns="http://www.w3.org/2000/svg">
<path fill-rule="evenodd" clip-rule="evenodd" d="M2.44995 2.7H5.59995V0H7.39995V2.7H8.74995V0H10.55V2.7C15.5 2.7 15.5 8.1 12.8 8.325C16.4 8.1 17.3 15.3 10.55 15.3V18H8.74995V15.3H7.39995V18H5.59995V15.3H2.44995L2.89995 13.5H3.79995C4.29701 13.5 4.69995 13.0971 4.69995 12.6V5.4C4.69995 4.90294 4.29701 4.5 3.79995 4.5H2.44995V2.7ZM7.39995 8.1C7.39995 8.1 11.45 8.325 11.45 6.3C11.45 4.275 7.39995 4.5 7.39995 4.5V8.1ZM12.35 11.475C12.35 13.5 7.39995 13.5 7.39995 13.5V9.45C7.39995 9.45 12.35 9.45 12.35 11.475Z" fill="black"/>
<mask id="mask0_0_2025" style="mask-type:alpha" maskUnits="userSpaceOnUse" x="2" y="0" width="14" height="18">
<path fill-rule="evenodd" clip-rule="evenodd" d="M2.44995 2.7H5.59995V0H7.39995V2.7H8.74995V0H10.55V2.7C15.5 2.7 15.5 8.1 12.8 8.325C16.4 8.1 17.3 15.3 10.55 15.3V18H8.74995V15.3H7.39995V18H5.59995V15.3H2.44995L2.89995 13.5H3.79995C4.29701 13.5 4.69995 13.0971 4.69995 12.6V5.4C4.69995 4.90294 4.29701 4.5 3.79995 4.5H2.44995V2.7ZM7.39995 8.1C7.39995 8.1 11.45 8.325 11.45 6.3C11.45 4.275 7.39995 4.5 7.39995 4.5V8.1ZM12.35 11.475C12.35 13.5 7.39995 13.5 7.39995 13.5V9.45C7.39995 9.45 12.35 9.45 12.35 11.475Z" fill="white"/>
</mask>
<g mask="url(#mask0_0_2025)">
<rect width="18" height="18" fill="#FCA25D"/>
</g>
</svg>
