<svg width="15" height="15" viewBox="0 0 15 15" fill="none" xmlns="http://www.w3.org/2000/svg">
<path fill-rule="evenodd" clip-rule="evenodd" d="M1.94412 2.14251H4.44372V0H5.87206V2.14251H6.94331V0H8.37165V2.14251C12.2996 2.14251 12.2996 6.42753 10.1571 6.60607C13.0138 6.42753 13.7279 12.1409 8.37165 12.1409V14.2834H6.94331V12.1409H5.87206V14.2834H4.44372V12.1409H1.94412L2.30121 10.7126H3.01538C3.4098 10.7126 3.72955 10.3928 3.72955 9.99838V4.28502C3.72955 3.8906 3.4098 3.57085 3.01538 3.57085H1.94412V2.14251ZM5.87206 6.42753C5.87206 6.42753 9.08582 6.60607 9.08582 4.99919C9.08582 3.39231 5.87206 3.57085 5.87206 3.57085V6.42753ZM9.79999 9.10567C9.79999 10.7126 5.87206 10.7126 5.87206 10.7126V7.49879C5.87206 7.49879 9.79999 7.49879 9.79999 9.10567Z" fill="black"/>
<mask id="mask0_0_36" style="mask-type:alpha" maskUnits="userSpaceOnUse" x="1" y="0" width="12" height="15">
<path fill-rule="evenodd" clip-rule="evenodd" d="M1.94412 2.14251H4.44372V0H5.87206V2.14251H6.94331V0H8.37165V2.14251C12.2996 2.14251 12.2996 6.42753 10.1571 6.60607C13.0138 6.42753 13.7279 12.1409 8.37165 12.1409V14.2834H6.94331V12.1409H5.87206V14.2834H4.44372V12.1409H1.94412L2.30121 10.7126H3.01538C3.4098 10.7126 3.72955 10.3928 3.72955 9.99838V4.28502C3.72955 3.8906 3.4098 3.57085 3.01538 3.57085H1.94412V2.14251ZM5.87206 6.42753C5.87206 6.42753 9.08582 6.60607 9.08582 4.99919C9.08582 3.39231 5.87206 3.57085 5.87206 3.57085V6.42753ZM9.79999 9.10567C9.79999 10.7126 5.87206 10.7126 5.87206 10.7126V7.49879C5.87206 7.49879 9.79999 7.49879 9.79999 9.10567Z" fill="white"/>
</mask>
<g mask="url(#mask0_0_36)">
<rect width="14.0033" height="14.0033" fill="#FCA25D"/>
</g>
</svg>
