<svg width="15" height="15" viewBox="0 0 15 15" fill="none" xmlns="http://www.w3.org/2000/svg">
<path d="M10.4379 14.2834C12.1208 14.2834 13.4899 12.8316 13.4899 11.047C13.4899 9.27555 12.1406 7.83264 10.4746 7.81157C10.4746 7.8109 10.4746 7.81022 10.4746 7.80955C10.3601 7.8082 10.2452 7.81461 10.1303 7.82708C10.1263 7.82742 10.1222 7.82792 10.1182 7.82843C10.0738 7.83332 10.0297 7.83938 9.98531 7.84646C9.97466 7.84815 9.96417 7.85 9.95368 7.85186C9.92983 7.8559 9.90615 7.85928 9.88246 7.86383C9.85353 7.85843 9.81888 7.8441 9.77978 7.82253C9.31546 7.5653 9.2514 6.8865 9.64546 6.52054C9.69426 6.4752 9.73861 6.43879 9.77628 6.41351C9.91823 6.44267 10.0635 6.46155 10.2117 6.46896C10.2603 6.47149 10.3086 6.47284 10.3565 6.47284C10.4029 6.47284 10.449 6.47132 10.4949 6.46913C10.507 6.46863 10.5193 6.46795 10.5313 6.46728C10.5755 6.46458 10.6194 6.46121 10.663 6.45649C10.6709 6.45565 10.6788 6.45447 10.6868 6.45362C10.723 6.44941 10.759 6.44452 10.7949 6.43896C10.8113 6.43643 10.8276 6.4339 10.8438 6.43104C10.8783 6.42514 10.9127 6.41873 10.9467 6.41148C10.9675 6.40727 10.9882 6.40238 11.0088 6.39766C11.0346 6.39159 11.0603 6.38552 11.0858 6.37878C11.1052 6.37372 11.1246 6.36867 11.1438 6.36311C11.1481 6.36193 11.1525 6.36091 11.157 6.35957C11.157 6.3594 11.157 6.35923 11.157 6.35906C12.4527 5.98519 13.4085 4.72736 13.4085 3.23642C13.4085 1.45184 12.0394 0 10.3565 0C8.67358 0 7.30447 1.45184 7.30447 3.23642C7.30447 3.77077 7.42798 4.27477 7.64512 4.71927C7.64464 4.71995 7.64401 4.72045 7.64353 4.72096C7.71776 4.87283 7.80392 5.01949 7.90152 5.15939C7.92107 5.23272 7.91137 5.36234 7.88006 5.52113C7.79072 5.97288 7.35454 6.24663 6.93616 6.11886C6.84778 6.09189 6.77434 6.06391 6.72093 6.03609C6.29953 4.78316 5.16997 3.8837 3.84553 3.8837C2.16263 3.8837 0.793518 5.33554 0.793518 7.12012C0.793518 8.90471 2.16263 10.3565 3.84553 10.3565C4.7775 10.3565 5.61267 9.91086 6.173 9.21048C6.17507 9.21284 6.17745 9.21503 6.17968 9.21739C6.37679 8.96893 6.53861 8.68878 6.65942 8.38216C6.70472 8.33125 6.80121 8.27832 6.92885 8.2291C7.32339 8.07672 7.75814 8.29282 7.89977 8.71204C7.95318 8.87032 7.98895 9.00804 7.99832 9.10176C7.87879 9.27184 7.77658 9.44866 7.69376 9.62902C7.68502 9.64807 7.67723 9.66746 7.6688 9.68667C7.66912 9.68667 7.66928 9.68684 7.66944 9.68701C7.48791 10.1007 7.38586 10.5613 7.38586 11.047C7.38586 12.8316 8.75497 14.2834 10.4379 14.2834V14.2834Z" fill="black"/>
<mask id="mask0_0_86" style="mask-type:alpha" maskUnits="userSpaceOnUse" x="0" y="0" width="14" height="15">
<path d="M10.4379 14.2834C12.1208 14.2834 13.4899 12.8316 13.4899 11.047C13.4899 9.27555 12.1406 7.83264 10.4746 7.81157C10.4746 7.8109 10.4746 7.81022 10.4746 7.80955C10.3601 7.8082 10.2452 7.81461 10.1303 7.82708C10.1263 7.82742 10.1222 7.82792 10.1182 7.82843C10.0738 7.83332 10.0297 7.83938 9.98531 7.84646C9.97466 7.84815 9.96417 7.85 9.95368 7.85186C9.92983 7.8559 9.90615 7.85928 9.88246 7.86383C9.85353 7.85843 9.81888 7.8441 9.77978 7.82253C9.31546 7.5653 9.2514 6.8865 9.64546 6.52054C9.69426 6.4752 9.73861 6.43879 9.77628 6.41351C9.91823 6.44267 10.0635 6.46155 10.2117 6.46896C10.2603 6.47149 10.3086 6.47284 10.3565 6.47284C10.4029 6.47284 10.449 6.47132 10.4949 6.46913C10.507 6.46863 10.5193 6.46795 10.5313 6.46728C10.5755 6.46458 10.6194 6.46121 10.663 6.45649C10.6709 6.45565 10.6788 6.45447 10.6868 6.45362C10.723 6.44941 10.759 6.44452 10.7949 6.43896C10.8113 6.43643 10.8276 6.4339 10.8438 6.43104C10.8783 6.42514 10.9127 6.41873 10.9467 6.41148C10.9675 6.40727 10.9882 6.40238 11.0088 6.39766C11.0346 6.39159 11.0603 6.38552 11.0858 6.37878C11.1052 6.37372 11.1246 6.36867 11.1438 6.36311C11.1481 6.36193 11.1525 6.36091 11.157 6.35957C11.157 6.3594 11.157 6.35923 11.157 6.35906C12.4527 5.98519 13.4085 4.72736 13.4085 3.23642C13.4085 1.45184 12.0394 0 10.3565 0C8.67358 0 7.30447 1.45184 7.30447 3.23642C7.30447 3.77077 7.42798 4.27477 7.64512 4.71927C7.64464 4.71995 7.64401 4.72045 7.64353 4.72096C7.71776 4.87283 7.80392 5.01949 7.90152 5.15939C7.92107 5.23272 7.91137 5.36234 7.88006 5.52113C7.79072 5.97288 7.35454 6.24663 6.93616 6.11886C6.84778 6.09189 6.77434 6.06391 6.72093 6.03609C6.29953 4.78316 5.16997 3.8837 3.84553 3.8837C2.16263 3.8837 0.793518 5.33554 0.793518 7.12012C0.793518 8.90471 2.16263 10.3565 3.84553 10.3565C4.7775 10.3565 5.61267 9.91086 6.173 9.21048C6.17507 9.21284 6.17745 9.21503 6.17968 9.21739C6.37679 8.96893 6.53861 8.68878 6.65942 8.38216C6.70472 8.33125 6.80121 8.27832 6.92885 8.2291C7.32339 8.07672 7.75814 8.29282 7.89977 8.71204C7.95318 8.87032 7.98895 9.00804 7.99832 9.10176C7.87879 9.27184 7.77658 9.44866 7.69376 9.62902C7.68502 9.64807 7.67723 9.66746 7.6688 9.68667C7.66912 9.68667 7.66928 9.68684 7.66944 9.68701C7.48791 10.1007 7.38586 10.5613 7.38586 11.047C7.38586 12.8316 8.75497 14.2834 10.4379 14.2834V14.2834Z" fill="white"/>
</mask>
<g mask="url(#mask0_0_86)">
<rect width="14.0033" height="14.0033" fill="#8F92A1"/>
</g>
</svg>
