<svg width="23" height="15" viewBox="0 0 23 15" fill="none" xmlns="http://www.w3.org/2000/svg">
<path fill-rule="evenodd" clip-rule="evenodd" d="M0 2.88C0 1.28942 1.28942 0 2.88 0H19.52C21.1106 0 22.4 1.28942 22.4 2.88V11.2376C22.4 12.8282 21.1106 14.1176 19.52 14.1176H2.88C1.28942 14.1176 0 12.8282 0 11.2376V2.88Z" fill="#1F2A4B"/>
<path d="M13.0429 7.05871C13.0429 8.58173 12.3203 9.93961 11.1982 10.8157C12.043 11.474 13.0901 11.8396 14.1771 11.8396C16.835 11.8396 18.9974 9.69488 18.9974 7.05871C18.9974 4.42253 16.835 2.27783 14.1771 2.27783C13.0901 2.27783 12.043 2.64337 11.1999 3.30032C12.3203 4.17775 13.0429 5.53569 13.0429 7.05871Z" fill="#FFCD00"/>
<path d="M13.0431 7.05871C13.0431 5.53569 12.3205 4.17775 11.1984 3.30167C10.3783 2.66131 9.34517 2.27783 8.22284 2.27783C5.56495 2.27783 3.40259 4.42253 3.40259 7.05871C3.40259 9.69488 5.56495 11.8396 8.22284 11.8396C9.34517 11.8396 10.3783 11.4561 11.1984 10.8157C12.3205 9.93961 13.0431 8.58173 13.0431 7.05871Z" fill="#FF5023"/>
</svg>
