<svg width="36" height="36" viewBox="0 0 36 36" fill="none" xmlns="http://www.w3.org/2000/svg">
<path fill-rule="evenodd" clip-rule="evenodd" d="M5.74613 20.3823C5.12547 19.7774 4.40144 19.4749 3.57391 19.4749C2.68266 19.4749 1.92665 19.7854 1.30599 20.4061C0.685331 21.0269 0.375 21.7669 0.375 22.6263C0.375 23.5496 0.701248 24.3213 1.35379 24.942C2.00634 25.5628 2.79408 25.8572 3.71701 25.8255C5.4358 25.889 6.89991 26.5417 8.10935 27.7831C9.31884 28.9927 9.92368 30.4729 9.92368 32.2237C9.92368 33.0831 10.226 33.8233 10.8308 34.444C11.4355 35.0648 12.1675 35.375 13.0269 35.375H13.1223C13.9817 35.375 14.7218 35.0648 15.3425 34.444C15.9632 33.8233 16.2735 33.0831 16.2735 32.2237C16.2735 30.4729 16.8783 28.9927 18.0877 27.7831C19.2653 26.5417 20.7453 25.889 22.5278 25.8255H22.6709C24.2624 25.8255 25.2809 25.0296 25.7265 23.438C25.9494 22.4832 25.7583 21.5758 25.1536 20.7164C24.5489 19.8252 23.6735 19.4114 22.5278 19.4749C20.8091 19.4433 19.329 18.8065 18.0877 17.565C16.9135 16.2981 16.3095 14.851 16.275 13.224C16.277 13.175 16.278 13.1258 16.278 13.076C16.278 11.3569 16.8826 9.8928 18.0921 8.68324C19.3016 7.44174 20.7658 6.78918 22.4846 6.7254C24.2987 6.69367 25.8424 7.31444 27.1156 8.58762C28.4206 9.92468 29.0571 11.4684 29.0252 13.2191C29.0571 14.0786 29.3834 14.8028 30.004 15.3918C30.6247 15.9806 31.3647 16.2751 32.224 16.2751C33.0836 16.2751 33.8235 15.9646 34.4442 15.3439C35.0648 14.7231 35.375 13.9671 35.375 13.076C35.375 12.1847 35.0408 11.4287 34.3725 10.808C33.7041 10.1872 32.9403 9.8928 32.0809 9.92468C30.3622 9.8928 28.8821 9.25615 27.6408 8.01481C26.4313 6.70963 25.8266 5.21349 25.8266 3.52647V3.47867V3.38321V3.2877V3.19223V3.14443C25.8266 3.11274 25.8106 3.08085 25.7788 3.04897V3.00116V2.9057C25.7788 2.87386 25.7628 2.84213 25.7311 2.81024V2.76243V2.66697L25.6832 2.61917V2.5237L25.6593 2.49973C25.6436 2.48396 25.6355 2.46013 25.6355 2.42824V2.38044C25.6037 2.38044 25.5879 2.3486 25.5879 2.28498L25.5401 2.23717C25.5401 2.23717 25.5321 2.22931 25.5162 2.21334C25.5003 2.19757 25.4923 2.17345 25.4923 2.14171V2.0939C25.4606 2.0939 25.4445 2.07813 25.4445 2.04625C25.4445 2.04625 25.4366 2.03824 25.4206 2.02242C25.4049 2.0065 25.3968 1.98267 25.3968 1.95079H25.3492V1.90298L25.3012 1.85518V1.75971L25.2536 1.71206L25.2059 1.66425L25.1819 1.64028C25.1662 1.62451 25.1581 1.60068 25.1581 1.56879L25.1105 1.52099C25.0786 1.52099 25.0625 1.50507 25.0625 1.47318C25.0625 1.47318 25.0547 1.46527 25.0387 1.44935C25.0229 1.43343 25.0149 1.40961 25.0149 1.37772H24.9672V1.33006C24.9354 1.33006 24.9194 1.31414 24.9194 1.28241L24.8716 1.23445C24.8399 1.23445 24.808 1.21868 24.7761 1.1868L24.7285 1.13899H24.6807V1.09133C24.6489 1.09133 24.6329 1.07542 24.6329 1.04353C24.5693 1.04353 24.5374 1.02761 24.5374 0.995724H24.4898V0.948068L24.4418 0.900262C24.3784 0.900262 24.3465 0.884344 24.3465 0.852457H24.2987L24.2511 0.804801C24.2192 0.804801 24.1954 0.796891 24.1793 0.780973L24.1555 0.756995L24.1078 0.709339H24.06V0.661683H23.9646L23.9168 0.613728C23.8849 0.613728 23.8531 0.597959 23.8212 0.566072H23.7259L23.6781 0.518267H23.5826L23.5348 0.470611H23.4394C23.4075 0.470611 23.3837 0.462552 23.3677 0.446783L23.3439 0.422805H23.2961H23.2485C23.2166 0.422805 23.1928 0.414896 23.1767 0.398828L23.1529 0.375H23.0574H23.0098H22.9142H22.8187H22.7233H22.6755H22.6278H22.58H22.5322H22.4846H22.4368H22.3891H22.3413H22.2935H22.2458H22.198H22.1504C22.1504 0.406887 22.1344 0.422805 22.1026 0.422805H22.0548H22.0071H21.9593L21.9115 0.470611H21.8639H21.8161H21.7684L21.7206 0.518267H21.6728H21.6252L21.5774 0.566072H21.5297H21.4819V0.613728H21.4341H21.3864L21.3387 0.661683H21.2909V0.709339H21.2432H21.1954L21.1477 0.756995H21.1001C21.1001 0.788882 21.084 0.804801 21.0522 0.804801C21.0203 0.804801 21.0045 0.820719 21.0045 0.852457H20.9567L20.909 0.900262L20.8612 0.948068C20.8295 0.948068 20.8134 0.963837 20.8134 0.995724H20.7658H20.718V1.04353L20.6702 1.09133C20.6385 1.09133 20.6225 1.10725 20.6225 1.13899H20.5747H20.5271L20.4794 1.1868C20.4794 1.21868 20.4633 1.23445 20.4315 1.23445V1.28241H20.3838V1.33006L20.336 1.37772C20.3043 1.37772 20.2884 1.39364 20.2884 1.42552L20.2406 1.47318L20.1928 1.52099C19.7153 2.0939 19.4768 2.73075 19.4768 3.43096C19.5085 5.21349 18.8719 6.75729 17.567 8.06246C16.3436 9.2859 14.9106 9.90802 13.2676 9.92846C13.2196 9.92652 13.1711 9.92553 13.1223 9.92553C13.087 9.92553 13.0519 9.92608 13.0166 9.92707L12.936 9.92468C12.865 9.93015 12.795 9.93752 12.7259 9.94697C12.0048 10.0269 11.381 10.3299 10.8546 10.8565C10.2339 11.4772 9.92368 12.2174 9.92368 13.0768C9.92368 13.9363 10.2181 14.6765 10.8069 15.2972C11.3957 15.9178 12.104 16.244 12.9314 16.2759C12.9831 16.2749 13.0343 16.2745 13.0853 16.2748H13.0948L13.127 16.2751C14.796 16.2902 16.2585 16.8954 17.5148 18.0903C18.7879 19.2999 19.4403 20.7801 19.4721 22.5309C19.504 24.3136 18.8833 25.8414 17.6101 27.1147C16.3688 28.3879 14.8888 29.0245 13.1701 29.0245H13.1223H13.0269C11.2764 29.0245 9.78033 28.3879 8.53896 27.1147C7.29778 25.8095 6.69304 24.2817 6.72492 22.5309C6.69304 21.7033 6.36679 20.987 5.74613 20.3823ZM3.72154 9.92468H3.53064C1.90721 9.92468 0.88877 10.7046 0.474978 12.2643C0.41136 12.7418 0.435186 13.2271 0.546704 13.7206C0.658123 14.2139 0.849027 14.6597 1.11962 15.0575C1.39 15.4554 1.74013 15.7657 2.17004 15.9886C2.59964 16.2114 3.1168 16.307 3.72154 16.2751C5.44027 16.3387 6.90439 16.9913 8.11387 18.2327C9.32337 19.4423 9.92806 20.9066 9.92806 22.6255C9.92806 23.5168 10.2384 24.2728 10.8591 24.8935C11.4798 25.5143 12.2358 25.8246 13.127 25.8246C13.9862 25.8246 14.7262 25.5143 15.3468 24.8935C15.9676 24.2728 16.278 23.5168 16.278 22.6255C16.278 21.7979 15.9836 21.0737 15.3946 20.453C14.8059 19.8322 14.0978 19.5061 13.2701 19.4742C11.5832 19.5061 10.0555 18.9171 8.68674 17.7075C7.44556 16.4979 6.79302 14.986 6.7293 13.1714C6.66568 11.4206 7.28634 9.8928 8.59128 8.58762C9.89638 7.28255 11.4559 6.66183 13.2701 6.7254C14.0978 6.69367 14.8059 6.36739 15.3946 5.74666C15.9836 5.12594 16.278 4.38578 16.278 3.52647C16.278 2.66697 15.9676 1.92696 15.3468 1.30623C14.7262 0.685511 13.9862 0.375 13.127 0.375C12.2358 0.375 11.4798 0.685511 10.8591 1.30623C10.2384 1.92696 9.92806 2.66697 9.92806 3.52647C9.92806 5.21349 9.32337 6.70963 8.11387 8.01481C6.87255 9.25615 5.40844 9.8928 3.72154 9.92468Z" fill="white"/>
</svg>
