<svg width="22" height="36" viewBox="0 0 22 36" fill="none" xmlns="http://www.w3.org/2000/svg">
<path fill-rule="evenodd" clip-rule="evenodd" d="M0.25 0.75V13.059L8.60834 21.6834C9.03738 21.3797 9.52971 21.1642 10.0607 21.0623V9.74319L0.25 0.75ZM7.6173 22.706L0.25 15.1042V24.2046H7.01538C7.11409 23.6567 7.32293 23.1487 7.6173 22.706ZM18.6733 32.0687L13.9057 27.1494C14.2001 26.7067 14.4089 26.1987 14.5076 25.6507H21.25C21.0936 28.1018 20.1482 30.3304 18.6733 32.0687ZM11.4623 35.75C13.8377 35.5887 15.9976 34.6131 17.6823 33.0913L12.9147 28.1719C12.4856 28.4757 11.9933 28.6912 11.4623 28.793V35.75ZM0.272988 25.6507H7.01538C7.11409 26.1987 7.32293 26.7067 7.6173 27.1494L2.84966 32.0687C1.37479 30.3304 0.42934 28.1018 0.272988 25.6507ZM14.5076 24.2046H21.25C21.0936 21.7536 20.1482 19.5249 18.6733 17.7866L13.9057 22.706C14.2001 23.1487 14.4089 23.6567 14.5076 24.2046ZM3.8407 33.0913L8.60834 28.1719C9.03738 28.4757 9.52971 28.6912 10.0607 28.793V35.75C7.68529 35.5887 5.5254 34.6131 3.8407 33.0913ZM12.9147 21.6834L17.6823 16.764C15.9976 15.2422 13.8377 14.2667 11.4623 14.1053V21.0623C11.9933 21.1642 12.4856 21.3797 12.9147 21.6834Z" fill="white"/>
</svg>
