<svg width="32" height="28" viewBox="0 0 32 28" fill="none" xmlns="http://www.w3.org/2000/svg">
<path fill-rule="evenodd" clip-rule="evenodd" d="M26.7331 12.0722C27.4917 11.4339 28.1208 10.6488 28.6218 9.71768C29.1235 8.78683 29.3748 7.86923 29.3748 6.9642C29.3748 6.57848 29.3399 6.18935 29.2735 5.79701C29.2049 5.40472 29.0691 4.96467 28.8663 4.47873C28.6631 3.99471 28.4015 3.53536 28.0853 3.10328C27.7665 2.67084 27.3322 2.24534 26.7846 1.82614C26.236 1.40736 25.6098 1.04824 24.9059 0.749128C24.2024 0.449969 23.3385 0.337901 22.3154 0.151587C21.2927 -0.0334343 20.1662 0.00288693 18.9345 0.00288693H7.97009V6.41897H0.25V10.5019H7.97009V16.9177H0.25V21.0006H7.97009V28H18.1402C19.7515 28 21.2316 27.9274 22.5786 27.6875C23.9269 27.4489 25.0601 27.163 25.9815 26.7829C26.9019 26.4046 27.7146 25.96 28.4186 25.4277C29.1236 24.8972 29.6811 24.3673 30.0944 23.8284C30.5073 23.2884 30.8424 22.7234 31.1 22.1258C31.357 21.5273 31.5297 20.9992 31.6168 20.5399C31.7049 20.0809 31.75 19.6332 31.75 19.1941C31.75 17.6503 31.2919 16.2315 30.3784 14.9349C29.4654 13.6375 28.2498 12.6841 26.7331 12.0722ZM13.3146 4.08582H17.7751C18.9935 4.08582 20.0227 4.14273 20.8627 4.36785C21.7024 4.59292 22.3144 4.87112 22.701 5.25576C23.0872 5.64148 23.3541 6.00298 23.5047 6.36883C23.6533 6.73463 23.7279 7.12268 23.7279 7.54886C23.7279 7.69549 23.7201 7.8386 23.7076 7.98482C23.5182 9.78024 22.1512 10.9292 19.3343 11.4349C18.1694 11.6343 15.6912 11.7648 13.316 11.8322L13.3146 4.08582V4.08582ZM26.2559 20.9011C26.0054 21.3335 25.6998 21.6899 25.342 21.9684C24.983 22.248 24.5121 22.4867 23.9305 22.6866C23.3477 22.8861 22.8136 23.0361 22.3253 23.1355C21.8374 23.2354 21.427 23.2944 20.7504 23.3484C20.0732 23.4015 18.9836 23.3907 18.9836 23.3907H13.3146V15.2448C16.284 15.0985 18.1272 15.0256 18.2367 15.0256C20.8489 15.0256 22.8563 15.419 24.3932 16.2036C25.9312 16.9886 26.665 18.0656 26.665 19.4359C26.6652 19.98 26.5065 20.4684 26.2559 20.9011Z" fill="white"/>
</svg>
