<svg width="36" height="36" viewBox="0 0 36 36" fill="none" xmlns="http://www.w3.org/2000/svg">
<path fill-rule="evenodd" clip-rule="evenodd" d="M3.8186 7.75309C3.89784 7.64688 3.97858 7.54967 4.05932 7.46895L4.28178 7.1724C3.91102 7.61723 3.68856 7.98792 3.4661 8.58102C3.46089 8.5897 3.45564 8.59838 3.45036 8.60706C3.39327 8.99695 3.40908 9.26539 3.61441 9.47067C3.3178 9.98964 3.09534 10.3603 2.87288 10.8052C2.72458 10.5827 2.65042 10.2862 2.65042 9.9155C2.65042 9.84136 2.65042 9.76722 2.72458 9.61895C2.72725 9.6145 2.72993 9.61005 2.73262 9.6056C2.75374 9.48649 2.81331 9.36737 2.87288 9.24826C2.94703 9.02584 3.09534 8.87757 3.24364 8.65516C3.40555 8.38537 3.60673 8.03705 3.8186 7.75309C3.89784 7.64688 3.97858 7.54967 4.05932 7.46895L4.28178 7.1724C3.98517 7.46895 3.83686 7.7655 3.61441 8.06205C3.51456 8.16188 3.41471 8.29532 3.33749 8.43973C3.28149 8.52204 3.22549 8.59917 3.16949 8.65516C3.3178 8.43274 3.4661 8.21033 3.61441 8.06205C3.60522 8.07124 3.59603 8.08099 3.58685 8.09124C3.66161 7.9745 3.73935 7.85929 3.8186 7.75309ZM5.47259 5.87825C5.69359 5.69155 5.91459 5.48467 6.13559 5.31896C5.91314 5.61551 5.76483 5.91206 5.69068 6.20861C5.65643 6.236 5.62219 6.26339 5.588 6.29084C5.622 6.26354 5.65634 6.23607 5.69068 6.20861C5.61653 6.43102 5.61653 6.65344 5.76483 6.80171C5.75121 6.81533 5.73768 6.82895 5.72425 6.84258C6.21306 7.38738 7.81609 7.22548 9.84322 6.35688C10.5106 6.06033 11.178 5.76378 11.7712 5.39309C11.9936 5.31896 12.2903 5.68964 12.3644 5.76378C12.4386 5.83792 12.5127 6.06033 12.3644 6.20861C11.6229 6.65344 10.8072 7.09826 9.91737 7.39481C7.36844 8.48699 5.32018 8.64954 4.75603 7.95269C4.7463 7.96438 4.73652 7.97612 4.7267 7.98792C4.65254 7.7655 4.57839 7.61723 4.65254 7.32068C4.65254 7.24654 4.65254 7.1724 4.7267 7.09826C4.78877 7.01551 4.8624 6.93275 4.94436 6.85C4.84153 6.95191 4.74355 7.05867 4.65254 7.1724C4.65254 7.09826 4.7267 6.94999 4.7267 6.87585C4.875 6.5793 5.02331 6.35688 5.24576 6.06033C5.29697 6.02194 5.34818 5.98133 5.39939 5.93927C5.62479 5.62281 5.95435 5.35189 6.2839 5.0224C6.87712 4.50344 6.87712 4.50344 7.17373 4.28103C7.25072 4.20405 7.30994 4.15372 7.37907 4.10544C7.35572 4.12529 7.33089 4.14648 7.30436 4.16916C7.5132 4.01205 7.73158 3.85656 7.95805 3.70361C7.96813 3.69856 7.97857 3.69334 7.98941 3.68792C8.03053 3.65856 8.0684 3.63151 8.10338 3.60654C9.11744 2.93664 10.2829 2.31989 11.4746 1.83448C11.667 1.72759 11.8594 1.63303 12.0519 1.54903C11.9379 1.59304 11.8462 1.63373 11.7396 1.68035C11.6779 1.70468 11.6225 1.72863 11.5617 1.75686C11.4598 1.79959 11.3377 1.84873 11.178 1.90862C10.8814 1.98276 10.8814 1.98276 10.2881 2.27931C9.99153 2.42758 9.99153 2.42758 9.47246 2.72413C9.25 2.87241 9.25 2.87241 8.73093 3.16896C8.5261 3.30549 8.50987 3.3163 8.10338 3.60654C12.9585 1.21704 12.6177 1.32081 12.2769 1.4555C11.8873 1.57433 11.4695 1.72537 11.0297 1.90862C9.31078 2.64514 7.69354 3.68652 6.68283 4.65419C6.53094 4.77541 6.45926 4.84708 6.2839 5.0224C6.37909 4.93283 6.47809 4.84325 6.58064 4.75384C6.41263 4.92077 6.2634 5.08509 6.13559 5.24482C5.90262 5.47775 5.66964 5.66494 5.47259 5.87825ZM1.2593 23.0814C1.27809 23.144 1.29689 23.2039 1.31568 23.2603C1.38983 23.4827 1.46398 23.631 1.61229 23.7793C1.48248 23.3899 1.35268 23.0006 1.22287 22.5615C1.21588 23.0439 1.36076 23.4649 1.61229 23.7793C1.46398 23.3344 1.31568 22.8896 1.24153 22.3706C2.57627 24.2241 7.61864 23.7793 14.0699 21.0362C22.3008 17.5517 29.7903 11.6207 30.8284 7.7655C31.0508 6.80171 30.9025 6.13447 30.3835 5.61551C30.7542 5.9862 31.125 6.43102 31.4958 6.80171C31.9407 7.32068 32.0148 7.98792 31.7924 8.87757C30.7542 12.8069 23.1165 18.812 14.6631 22.3706C7.32248 25.5646 1.78855 25.7063 1.2593 23.0814C1.12979 22.6499 1.00028 22.0919 0.870763 21.7034C0.944915 21.9258 1.01907 22.1482 1.16737 22.3706C1.18249 22.4236 1.19761 22.4757 1.21273 22.5271C1.20793 22.624 1.21243 22.7161 1.22288 22.8053C1.21741 22.7229 1.21633 22.638 1.21972 22.5509C1.21739 22.543 1.21506 22.5351 1.21273 22.5271C1.21641 22.4532 1.2255 22.3766 1.24153 22.2965C1.2255 22.3766 1.21641 22.4532 1.21273 22.5271L1.2593 23.0814ZM13.2993 1.13432C13.3306 1.12186 13.3646 1.10826 13.4025 1.0931C15.6271 0.5 17.036 0.796551 16.7394 2.05689C16.6653 2.50172 16.3686 2.94655 15.9237 3.39137C15.553 3.53965 14.7373 3.39137 14.589 3.2431C14.9597 2.79827 15.1822 2.42758 15.2564 2.13103C15.4868 1.15186 14.4193 0.888666 12.6797 1.34146C12.6539 1.3507 12.6286 1.36007 12.6025 1.36997L13.2993 1.13432ZM13.1645 1.18692C13.2516 1.16062 13.354 1.12991 13.4767 1.0931C13.4176 1.10624 13.3584 1.11996 13.2993 1.13432L13.1645 1.18692ZM0.574891 19.6903C0.5831 20.0318 0.661001 20.3075 0.870763 20.5172C0.870763 20.2948 0.852225 20.0538 0.833686 19.8129C0.815148 20.0538 0.833686 20.2948 0.870763 20.5172C0.729289 20.2815 0.617805 19.9857 0.574458 19.6682C0.574253 19.6548 0.574153 19.6412 0.574153 19.6275C0.574153 19.5122 0.569164 19.3818 0.561775 19.2443C0.564696 19.1997 0.568818 19.1545 0.574153 19.1086C0.568443 19.1485 0.564052 19.1885 0.560912 19.2284C0.539587 18.8394 0.5 18.3957 0.5 18.0707C0.5 18.5155 0.648305 18.812 0.79661 19.1086C5.76483 24.3724 28.0847 10.731 28.3072 4.94827C28.3814 3.91034 27.7881 3.53965 27.4915 3.31724L28.0847 3.68792L28.8263 4.20689C29.4195 4.72585 29.6419 5.46723 29.4195 6.43102C28.4555 10.1379 21.1886 15.8465 13.2542 19.1827C6.18113 22.2333 0.923754 22.3014 0.574891 19.6903ZM0.833686 14.8086L0.944915 14.3638C0.79661 14.9569 0.870763 15.4758 1.16737 15.7724C1.16546 15.7781 1.16355 15.7839 1.16166 15.7897C1.30691 15.9632 1.50656 16.0902 1.76059 16.2172C1.98305 16.5138 1.83475 17.2551 1.83475 17.2551C1.76059 17.4776 1.68644 17.7741 1.53814 17.7C0.79661 17.3293 0.5 16.7362 0.574153 15.8465C0.5 16.3655 0.648305 16.8103 0.870763 17.1069C0.873098 17.0929 0.875434 17.0788 0.87777 17.0646C0.69389 16.7312 0.581902 16.3854 0.648305 15.9207L0.677892 15.7284C0.66216 15.7925 0.648305 15.8566 0.648305 15.9207L0.79661 14.8827L0.944915 14.2896C0.944915 14.2155 0.944915 14.2155 0.944915 14.1414C0.907839 14.3638 0.870763 14.5862 0.833686 14.8086ZM1.92242 12.9887C1.78158 13.3143 1.66268 13.6166 1.61229 13.9189C1.38983 13.6224 1.31568 13.2517 1.38983 12.8069C1.38983 12.6586 1.38983 12.5845 1.46398 12.4362C1.61229 11.9914 1.76059 11.6207 1.98305 11.1758C1.83475 11.6948 1.9089 12.1396 2.13136 12.5103C2.11545 12.5474 2.09954 12.5842 2.08369 12.6205C3.01301 13.8389 6.4003 13.5303 10.7331 11.6948C16.2945 9.24826 21.411 5.24482 22.0784 2.72413C22.3008 1.76034 22.0042 1.16724 21.1886 0.870689C21.3369 0.796551 21.3369 0.796551 21.7818 0.944827C22.0784 1.01896 22.3008 1.0931 22.4492 1.0931C23.4131 1.46379 23.7839 2.13103 23.4873 3.16896C22.7458 5.9862 17.1843 10.3603 11.1038 12.9551C6.2839 14.9569 2.57627 15.3276 1.61229 13.9189C1.71567 13.6089 1.81904 13.2988 1.92242 12.9887ZM13.3639 34.3555C12.4734 34.3859 11.7349 34.2932 11.178 34.0844C10.7331 33.862 10.1398 33.6396 9.76907 33.4172C10.6742 33.7924 11.8603 33.8851 13.2265 33.7502C13.2277 33.6645 13.2369 33.5779 13.2542 33.4913C13.2389 33.5835 13.2299 33.6693 13.2272 33.7501C21.0396 32.9786 34.7426 24.7686 35.5 19.4051L35.4258 19.6275C35.3517 20.0724 35.2775 20.5913 35.2775 20.962C35.2775 21.0362 35.2775 21.1103 35.2034 21.1844C34.3136 24.3724 28.0106 29.3396 21.1144 32.3051C18.0085 33.6287 15.3221 34.2881 13.3674 34.3554C13.3986 34.4156 13.4351 34.4737 13.4767 34.5292C13.4335 34.4717 13.3959 34.4141 13.3639 34.3555ZM14.2324 31.3071C14.2768 31.2444 14.3217 31.1817 14.3665 31.1189C14.3219 31.1813 14.2784 31.2438 14.2359 31.3061C15.3607 30.9911 16.5719 30.5824 17.8517 30.081C18.6674 29.8586 18.964 30.3775 18.964 30.3775C19.0381 30.4517 19.0381 30.7482 18.5932 30.9706C16.7308 31.6992 15.0158 32.2216 13.509 32.5376C13.498 32.5591 13.4873 32.5805 13.4767 32.6017C13.4835 32.5812 13.4908 32.5606 13.4985 32.5398C10.8708 33.0897 8.87728 33.0115 7.8411 32.3051C7.47034 32.0086 6.95127 31.6379 6.58051 31.3413C7.77415 32.3642 10.5363 32.3417 14.2324 31.3071ZM4.94915 29.7103C4.65254 29.3396 4.28178 28.9689 4.05932 28.5982C4.35593 28.9689 4.80085 29.4879 5.09746 29.8586C5.09746 29.7844 5.02331 29.7103 4.94915 29.7103ZM16.7394 0.574138C17.1843 0.574138 17.7775 0.5 18.2225 0.5C19.7797 0.5 20.5212 1.0931 20.2246 2.27931C19.8538 3.68792 17.8517 5.68964 15.2564 7.46895C14.7373 7.69136 14.2182 7.02412 14.3665 6.72757C14.3665 6.65344 14.4407 6.65344 14.4407 6.65344C16.7394 5.09654 18.4449 3.39137 18.8157 2.13103C19.1123 0.944827 18.1483 0.425862 16.4428 0.574138H16.7394ZM3.24364 8.65516C3.16949 8.80343 3.02119 9.09998 2.87288 9.24826C2.94703 9.02584 3.09534 8.80343 3.24364 8.65516ZM25.6377 2.27931C26.5275 2.72413 26.8983 3.46551 26.6017 4.57758C25.7119 7.91378 19.1864 13.0293 12.0678 16.0689C10.7331 16.662 9.39831 17.1069 8.21186 17.4776C7.54449 17.5517 7.47034 16.662 7.76695 16.2172C7.8411 16.0689 7.91525 16.0689 7.98941 15.9948C9.10169 15.6982 10.2881 15.2534 11.5487 14.7345C18.2966 11.8431 24.4513 6.94999 25.2669 3.8362C25.5636 2.72413 25.1186 1.98276 24.1547 1.61207C24.5996 1.83448 25.1928 2.05689 25.6377 2.27931ZM33.3496 9.61895L33.572 9.98964C33.7945 10.5827 33.7945 10.5827 33.7945 10.8793V10.9534C33.572 10.8793 33.1271 9.98964 33.053 9.61895C33.053 9.17412 32.9788 8.87757 32.7564 8.58102L33.3496 9.61895ZM34.9068 13.5482C34.9809 13.9189 34.9809 14.3638 34.8326 14.8827C33.9428 18.1448 28.3814 22.9637 21.6335 26.4482C20.8919 26.7448 20.447 26.2258 20.5953 25.7068C20.6695 25.4844 20.8178 25.3362 20.9661 25.262C27.7881 21.7034 33.4979 16.8103 34.3877 13.4741C34.536 12.881 34.536 12.362 34.3877 11.9172C34.6102 12.5103 34.8326 13.1034 34.9068 13.5482ZM35.4258 16.662V17.2551C35.4258 17.5517 35.4258 17.7741 35.3517 18.1448C34.8326 20.1465 32.3856 22.7413 29.0487 25.262C28.5297 25.6327 28.2331 25.1137 28.3072 24.7431C28.3814 24.4465 28.6038 24.2241 28.678 24.15C32.1631 21.5551 34.6843 18.8862 35.2034 16.8103C35.2775 16.4396 35.3517 16.0689 35.2775 15.6982L35.4258 16.662ZM4.7267 7.98792C4.65254 7.7655 4.57839 7.61723 4.65254 7.32068C4.57839 7.61723 4.65254 7.7655 4.7267 7.98792ZM2.87288 10.8052C2.72458 10.5827 2.65042 10.2862 2.65042 9.9155C2.65042 10.2862 2.65042 10.5086 2.87288 10.8052ZM8.87924 10.0638C8.87924 10.4345 8.80508 10.9534 5.61653 11.3983C4.72669 11.5465 3.4661 11.4724 2.87288 10.8052C3.09534 10.3603 3.3178 9.98964 3.61441 9.54481C4.20763 10.2862 6.06144 10.2862 8.58263 9.47067C8.87924 9.39653 8.87924 10.0638 8.87924 10.0638ZM1.61229 13.9189C1.38983 13.6224 1.31568 13.2517 1.38983 12.8069C1.31568 13.2517 1.38983 13.6224 1.61229 13.9189ZM29.5678 16.5138C29.7161 16.9586 29.5678 17.2551 29.4195 17.4776C26.1568 20.4431 21.3369 23.4086 16.2945 25.5586C8.80509 28.6724 3.16949 28.8948 2.65042 26.2258C2.57627 26.0034 2.65042 26.1517 2.72458 26.0775C2.72458 26.1517 2.72458 26.5224 3.02119 26.9672C2.94703 26.8189 2.87288 26.7448 2.79873 26.5965C2.72458 26.5224 2.72458 26.4482 2.65042 26.3741C2.50212 26.1517 2.42797 25.8551 2.27966 25.6327C3.68856 27.4862 8.87924 27.1155 15.553 24.2241C20.5953 22.0741 25.4153 19.0344 28.678 16.1431C29.2712 15.8465 29.4936 16.2913 29.5678 16.5138ZM10.8072 30.081C10.8814 30.2293 10.9555 30.5258 10.6589 30.5999C7.98941 31.0448 6.06144 30.8224 5.17161 29.8586C4.875 29.4879 4.43008 28.9689 4.13347 28.5982C4.94915 29.6361 6.95127 29.9327 9.84322 29.4879C10.3623 29.4879 10.7331 29.9327 10.8072 30.081ZM34.1653 24.6689C34.3877 24.2241 34.6102 23.5568 34.7585 23.112C33.8686 26.0034 28.1589 30.4517 21.9301 33.1206C18.0742 34.7517 14.8856 35.3448 13.1801 34.8258C13.625 34.9741 14.2924 35.1223 14.8114 35.1965C19.5572 35.9379 31.5699 30.0068 34.1653 24.6689ZM30.3093 30.0068C30.3093 30.081 30.161 30.3034 29.8644 30.5258C28.2331 31.8603 26.0085 33.1948 23.7097 34.1586C21.7818 34.9741 20.0763 35.4189 18.8157 35.493C18.2966 35.493 17.5551 35.493 16.9619 35.493C18.4449 35.5672 20.5953 35.0482 23.1907 34.0103C25.786 32.8982 28.3072 31.4155 30.161 29.8586C30.2352 29.8586 30.2352 29.7844 30.3093 29.7844C30.3093 29.7844 30.3093 29.8586 30.3835 29.8586C30.3835 29.8586 30.3835 29.9327 30.3093 30.0068ZM1.38983 12.5103C1.38983 12.4362 1.46398 12.2879 1.46398 12.2138C1.61229 11.7689 1.9089 11.1017 2.0572 10.6569C2.0572 10.8793 1.98305 11.0276 1.9089 11.25C1.68644 11.6207 1.53814 12.0655 1.38983 12.5103Z" fill="white"/>
</svg>
