<svg width="40" height="36" viewBox="0 0 40 36" fill="none" xmlns="http://www.w3.org/2000/svg">
<path fill-rule="evenodd" clip-rule="evenodd" d="M5.93814 20.7957C5.92749 20.6177 5.9219 20.4336 5.9219 20.2423C5.9219 14.0878 10.7192 9.08361 16.7219 8.87016C16.8651 8.87016 17.0202 8.87016 17.1634 8.88201L15.7314 7.45901C15.7314 7.45901 21.4954 6.49848 28.8942 10.9454C28.8942 10.9454 29.0016 11.1707 28.8942 11.8348C28.8942 11.8348 32.3789 13.3289 32.6772 16.2342C32.9756 19.1395 31.1258 20.7997 29.6341 21.0369C29.6341 21.0369 30.4098 19.8392 29.2165 19.1988C28.9658 19.0565 28.6675 18.9972 28.3692 19.0091C26.0898 19.0091 25.8273 21.5942 25.8273 21.5942C25.8034 21.7246 25.8034 21.8551 25.8034 21.9855C25.8034 21.9855 25.4716 25.2727 30.9173 25.6609C32.1209 24.119 33.2108 22.4005 34.1733 20.5249C35.1801 18.5606 35.9835 16.5457 36.6057 14.5633C36.9802 13.3697 37.2441 12.3387 37.4157 11.5204C34.244 8.91857 30.501 6.68907 26.4771 4.82192C24.9704 4.12279 23.5079 3.51441 22.1252 2.99375C21.27 2.67175 20.5716 2.42938 19.9911 2.24158C19.4269 2.42295 18.7107 2.67101 17.8531 2.99378C16.472 3.51358 15.009 4.1223 13.5019 4.82189C9.48173 6.68813 5.73959 8.91824 2.56706 11.5209C2.73827 12.3481 2.9995 13.3785 3.37348 14.5757C3.99351 16.5606 4.79788 18.5786 5.81013 20.5486C5.85254 20.6313 5.89522 20.7136 5.93814 20.7957ZM39.25 10.8281L39.1632 11.3171C39.1168 11.6974 38.8071 13.059 38.4252 14.3627C37.7596 16.6345 36.8554 18.9825 35.6802 21.276C34.0952 24.3658 32.1693 27.0621 29.9612 29.2803C27.2354 32.0131 24.0833 34.0304 20.5683 35.2873L20.3725 35.356L19.9998 35.5L19.63 35.3703L19.4243 35.2982C15.9019 34.0386 12.7398 32.0169 10.0329 29.2909C7.8144 27.0501 5.89201 24.3618 4.31488 21.2873C3.14084 18.9908 2.23987 16.6452 1.57461 14.3699C1.34128 13.5719 1.15394 12.8389 1.00707 12.182C0.919099 11.7886 0.823004 11.2993 0.840464 11.3687L0.75 10.8661L0.95942 10.69L1.11434 10.5597C4.34113 7.84333 8.15823 5.51299 12.2795 3.55508C15.0252 2.25067 17.5353 1.28211 19.4309 0.674121L19.9885 0.5L20.3676 0.613012L20.556 0.675232C22.4481 1.28211 24.9582 2.25067 27.7039 3.55508C31.8188 5.50994 35.6304 7.83607 38.854 10.547L39.25 10.8281ZM25.9466 12.0956C26.0421 12.0482 26.3524 11.894 26.7104 11.5264C27.4264 11.6213 28.1305 11.8466 28.1305 11.8466C26.8297 11.064 25.0516 10.6015 23.0825 10.6133C23.0825 10.6133 23.8344 11.6806 25.9228 12.1194C25.9228 12.1194 25.9347 12.1075 25.9466 12.0956Z" fill="white"/>
</svg>
