<svg width="40" height="10" viewBox="0 0 40 10" fill="none" xmlns="http://www.w3.org/2000/svg">
<path fill-rule="evenodd" clip-rule="evenodd" d="M18.3727 6.45835C19.2593 6.45835 19.9783 7.11123 19.9783 7.9163C19.9783 8.7221 19.2593 9.375 18.3727 9.375H15.1605C14.894 9.375 14.6419 9.31575 14.4208 9.21105L5.0549 3.54128H2.35602C1.46895 3.54128 0.75 2.88846 0.75 2.08339C0.75 1.27786 1.46895 0.625 2.35602 0.625H5.56776C5.9137 0.625 6.23483 0.724408 6.49746 0.893655L15.653 6.45835H18.3727ZM31.1774 6.45835H29.6829H28.4579L19.3019 0.893655C19.0396 0.724408 18.7185 0.625 18.3726 0.625H15.1607C14.2738 0.625 13.5548 1.27786 13.5548 2.08339C13.5548 2.88846 14.2738 3.54128 15.1607 3.54128H17.8601L27.2258 9.21105C27.4472 9.31575 27.6985 9.375 27.9657 9.375H29.6829H31.1774H32.8948C33.7813 9.375 34.5003 8.7221 34.5003 7.9163C34.5003 7.11123 33.7813 6.45835 32.8948 6.45835H31.1774ZM36.0374 4.99969C36.0374 5.80554 36.757 6.45835 37.6439 6.45835C38.5311 6.45835 39.25 5.80554 39.25 4.99969V2.08339C39.25 1.27786 38.5311 0.625 37.6439 0.625H27.9657C27.0788 0.625 26.3599 1.27786 26.3599 2.08339C26.3599 2.88846 27.0788 3.54128 27.9657 3.54128H36.0374V4.99969ZM5.56776 6.45822H2.35602C1.46895 6.45822 0.75 7.11108 0.75 7.91661C0.75 8.72198 1.46895 9.37486 2.35602 9.37486H5.56776C6.45483 9.37486 7.17372 8.72198 7.17372 7.91661C7.17372 7.11108 6.45483 6.45822 5.56776 6.45822Z" fill="white"/>
</svg>
