<svg width="375" height="440" viewBox="0 0 375 440" fill="none" xmlns="http://www.w3.org/2000/svg">
<path fill-rule="evenodd" clip-rule="evenodd" d="M375 0V408C375 425.673 360.673 440 343 440H32C14.3269 440 0 425.673 0 408V0H375Z" fill="url(#paint0_linear_0_1165)"/>
<path fill-rule="evenodd" clip-rule="evenodd" d="M375 0V408C375 425.673 360.673 440 343 440H32C14.3269 440 0 425.673 0 408V0H375Z" fill="url(#paint1_linear_0_1165)"/>
<path fill-rule="evenodd" clip-rule="evenodd" d="M375 0V408C375 425.673 360.673 440 343 440H32C14.3269 440 0 425.673 0 408V0H375Z" fill="url(#paint2_radial_0_1165)"/>
<mask id="mask0_0_1165" style="mask-type:alpha" maskUnits="userSpaceOnUse" x="0" y="0" width="375" height="440">
<path fill-rule="evenodd" clip-rule="evenodd" d="M375 0V408C375 425.673 360.673 440 343 440H32C14.3269 440 0 425.673 0 408V0H375Z" fill="white"/>
<path fill-rule="evenodd" clip-rule="evenodd" d="M375 0V408C375 425.673 360.673 440 343 440H32C14.3269 440 0 425.673 0 408V0H375Z" stroke="white"/>
</mask>
<g mask="url(#mask0_0_1165)">
<rect width="375" height="812" fill="url(#paint3_linear_0_1165)"/>
<rect width="375" height="812" fill="url(#paint4_linear_0_1165)"/>
<rect width="375" height="812" fill="url(#paint5_radial_0_1165)"/>
<mask id="mask1_0_1165" style="mask-type:alpha" maskUnits="userSpaceOnUse" x="0" y="0" width="375" height="812">
<rect width="375" height="812" fill="white"/>
<rect width="375" height="812" stroke="white"/>
</mask>
<g mask="url(#mask1_0_1165)">
</g>
</g>
<defs>
<linearGradient id="paint0_linear_0_1165" x1="187.25" y1="-216.565" x2="-244.086" y2="151.051" gradientUnits="userSpaceOnUse">
<stop stop-color="#343953"/>
<stop offset="0.386004" stop-color="#38374E"/>
<stop offset="0.686342" stop-color="#3E3348"/>
<stop offset="1" stop-color="#352D46"/>
</linearGradient>
<linearGradient id="paint1_linear_0_1165" x1="132.8" y1="401.273" x2="386.641" y2="463.318" gradientUnits="userSpaceOnUse">
<stop stop-color="#332C45"/>
<stop offset="1" stop-color="#3D3348" stop-opacity="0.01"/>
</linearGradient>
<radialGradient id="paint2_radial_0_1165" cx="0" cy="0" r="1" gradientUnits="userSpaceOnUse" gradientTransform="translate(264.99 50.2524) rotate(90) scale(152.912 195.297)">
<stop stop-color="#3A3D54"/>
<stop offset="1" stop-color="#3A3D53" stop-opacity="0.01"/>
</radialGradient>
<linearGradient id="paint3_linear_0_1165" x1="187.25" y1="-399.661" x2="-426.495" y2="-116.219" gradientUnits="userSpaceOnUse">
<stop stop-color="#343953"/>
<stop offset="0.386004" stop-color="#38374E"/>
<stop offset="0.686342" stop-color="#3E3348"/>
<stop offset="1" stop-color="#352D46"/>
</linearGradient>
<linearGradient id="paint4_linear_0_1165" x1="132.8" y1="740.531" x2="397.169" y2="775.546" gradientUnits="userSpaceOnUse">
<stop stop-color="#332C45"/>
<stop offset="1" stop-color="#3D3348" stop-opacity="0.01"/>
</linearGradient>
<radialGradient id="paint5_radial_0_1165" cx="0" cy="0" r="1" gradientUnits="userSpaceOnUse" gradientTransform="translate(264.99 92.7386) rotate(90) scale(282.192 195.297)">
<stop stop-color="#3A3D54"/>
<stop offset="1" stop-color="#3A3D53" stop-opacity="0.01"/>
</radialGradient>
</defs>
</svg>
