<svg width="375" height="160" viewBox="0 0 375 160" fill="none" xmlns="http://www.w3.org/2000/svg">
<path d="M0 119.854C5.86615 119.854 23.2144 117.22 31.8433 106.682C42.6295 93.5102 67.445 105.296 80.6648 90.0439C89.52 79.8274 85.7222 77.1946 100.534 55.3811C111.832 38.7429 117.404 36.2287 130.396 37.6571C150.665 39.8857 160.751 69.3563 172.936 90.0439C182.735 106.682 186.256 111.535 198.745 135.106C202.151 142.039 216.809 157.984 228.852 157.984C240.894 157.984 245.863 160.064 264.597 117.081C283.331 74.0992 290.711 75.4857 309.445 75.4857C328.179 75.4857 346.912 25.5709 351.454 18.6383C354.723 13.6473 365.471 2 377 2" stroke="#FF7262" stroke-width="3"/>
</svg>
