<svg width="375" height="185" viewBox="0 0 375 185" fill="none" xmlns="http://www.w3.org/2000/svg">
<g style="mix-blend-mode:soft-light" opacity="0.594703">
<path fill-rule="evenodd" clip-rule="evenodd" d="M395.781 0.9999C421.854 5.81435 417.83 29.0019 417.83 29.0019L375 185H0V119.854C5.86615 119.854 23.2144 117.22 31.8433 106.682C42.6295 93.5101 67.445 105.296 80.6648 90.0438C89.52 79.8273 85.7222 77.1945 100.534 55.381C111.832 38.7428 117.404 36.2286 130.396 37.657C150.665 39.8856 160.751 69.3562 172.936 90.0438C182.735 106.682 186.256 111.535 198.745 135.106C202.151 142.039 216.809 157.984 228.852 157.984C240.894 157.984 245.863 160.064 264.597 117.081C283.331 74.0991 290.711 75.4856 309.445 75.4856C328.179 75.4856 346.912 25.5708 351.454 18.6382C354.723 13.6472 369.709 -3.81455 395.781 0.9999Z" fill="url(#paint0_linear_0_790)"/>
</g>
<defs>
<linearGradient id="paint0_linear_0_790" x1="0" y1="0.168945" x2="0" y2="185" gradientUnits="userSpaceOnUse">
<stop stop-color="#FF7262"/>
<stop offset="1" stop-color="#FFD6AF" stop-opacity="0.01"/>
</linearGradient>
</defs>
</svg>
